<svg version="1.1" id="Layer_1" xmlns="http://www.w3.org/2000/svg" xmlns:xlink="http://www.w3.org/1999/xlink" x="0px" y="0px"
	 width="100%" viewBox="0 0 1200 1200" enable-background="new 0 0 1200 1200" xml:space="preserve">
<path fill="currentColor" opacity="1.000000" stroke="none" 
	d="
M551.468628,1201.000000 
	C549.938782,1200.337280 548.936462,1199.228149 547.807495,1199.079224 
	C532.121948,1197.009888 516.282104,1195.808472 500.753815,1192.921997 
	C479.885529,1189.042847 459.107880,1184.454834 438.556763,1179.143921 
	C409.915253,1171.742310 382.285553,1161.309326 355.300812,1149.142334 
	C321.761475,1134.020020 289.529938,1116.545776 259.603546,1095.131104 
	C243.251724,1083.430176 227.167404,1071.231323 211.927414,1058.134155 
	C195.207687,1043.765259 178.960709,1028.718872 163.665085,1012.852051 
	C144.172943,992.632019 126.610222,970.676697 110.341400,947.722717 
	C89.253006,917.968872 71.201340,886.457947 55.826607,853.430969 
	C41.875057,823.461121 30.182066,792.595581 22.061064,760.522949 
	C16.930445,740.260315 12.450358,719.813538 8.374759,699.310974 
	C6.162021,688.179626 5.442919,676.753784 3.976463,665.470459 
	C3.354435,660.684387 2.543458,655.922974 1.409176,651.075195 
	C1.000000,617.979126 1.000000,584.958191 1.000002,551.468628 
	C1.663040,549.905029 2.768606,548.868469 2.922264,547.706177 
	C4.995760,532.021179 6.233102,516.189575 9.084483,500.652466 
	C12.857022,480.095947 17.168243,459.581635 22.512300,439.383728 
	C30.158739,410.483917 40.530037,382.474884 52.883236,355.204315 
	C68.062889,321.694122 85.507866,289.448822 106.920792,259.520569 
	C118.524414,243.302490 130.643326,227.374069 143.578537,212.209549 
	C157.020966,196.450394 171.106308,181.120819 186.057907,166.801453 
	C200.831848,152.652252 216.471313,139.251099 232.766922,126.886971 
	C251.930786,112.346588 271.679871,98.418808 292.132446,85.773689 
	C320.985260,67.934998 351.573944,53.266895 383.273438,41.056080 
	C408.850708,31.203575 434.840179,22.535118 461.652588,16.794363 
	C481.282410,12.591455 501.123138,9.327017 520.937195,6.051636 
	C530.200073,4.520432 539.624390,3.971601 548.967834,2.910178 
	C549.680969,2.829157 550.333130,2.210350 551.006836,1.420757 
	C584.020874,1.000000 617.041809,1.000000 650.531372,0.999999 
	C652.061340,1.662699 653.063782,2.771843 654.192871,2.920796 
	C669.880188,4.990246 685.721741,6.191626 701.251648,9.078802 
	C722.122070,12.958860 742.901428,17.549595 763.454773,22.861101 
	C792.099487,30.263617 819.734497,40.692852 846.719666,52.866283 
	C880.258789,67.996277 912.499023,85.464531 942.425110,106.887741 
	C958.776367,118.593132 974.823792,130.834473 990.108887,143.887207 
	C1005.989014,157.448074 1021.426758,171.663452 1035.870361,186.730957 
	C1049.797241,201.259506 1062.948608,216.680878 1075.093872,232.729233 
	C1089.613159,251.914413 1103.552368,271.655792 1116.206665,292.106842 
	C1134.058350,320.957703 1148.719238,351.554871 1160.937500,383.254395 
	C1170.796143,408.832306 1179.463623,434.826111 1185.201782,461.642822 
	C1189.402710,481.275513 1192.671387,501.117645 1195.947998,520.933777 
	C1197.479736,530.197754 1198.028320,539.623169 1199.089722,548.967712 
	C1199.170898,549.680908 1199.789795,550.333008 1200.579346,551.006775 
	C1201.000000,584.020874 1201.000000,617.041809 1201.000000,650.531372 
	C1200.337280,652.061340 1199.228149,653.063843 1199.079224,654.192993 
	C1197.009888,669.880310 1195.808350,685.721863 1192.921143,701.251770 
	C1189.041138,722.122192 1184.450439,742.901550 1179.139038,763.454895 
	C1171.736572,792.099670 1161.307251,819.734680 1149.133667,846.719849 
	C1134.003540,880.258911 1116.535522,912.499329 1095.112061,942.425293 
	C1083.406494,958.776611 1071.165405,974.824097 1058.112549,990.109192 
	C1044.551636,1005.989197 1030.336060,1021.426636 1015.268616,1035.870361 
	C1000.740112,1049.797241 985.318848,1062.948853 969.270508,1075.094238 
	C950.085327,1089.613525 930.343933,1103.552856 909.892822,1116.207031 
	C881.041809,1134.058838 850.444458,1148.719116 818.744934,1160.937500 
	C793.167114,1170.796509 767.173157,1179.463623 740.356445,1185.202148 
	C720.723816,1189.403198 700.881531,1192.671631 681.065369,1195.948242 
	C671.801514,1197.479858 662.376038,1198.028442 653.031433,1199.089966 
	C652.318542,1199.171021 651.666687,1199.789795 650.993225,1200.579346 
	C617.979126,1201.000000 584.958191,1201.000000 551.468628,1201.000000 
M967.062866,143.480240 
	C965.970764,142.460068 964.961731,141.329437 963.774231,140.436050 
	C939.350342,122.060257 914.291016,104.686752 887.578857,89.691284 
	C859.680908,74.030151 830.762207,60.713036 800.698425,49.882954 
	C760.374817,35.356930 719.113708,24.523928 676.400696,19.976871 
	C657.181580,17.930882 637.908997,15.932948 618.612061,15.208354 
	C601.196350,14.554399 583.708679,15.494799 566.263733,16.066090 
	C556.347229,16.390837 546.354553,16.735367 536.568604,18.212919 
	C515.561829,21.384651 494.562073,24.780525 473.747833,29.011503 
	C429.024841,38.102497 386.424805,53.660213 345.367279,73.379166 
	C315.517059,87.715508 286.876434,104.324745 260.440491,124.289497 
	C240.290573,139.506989 220.356644,155.185867 201.714447,172.181732 
	C176.208466,195.435211 153.135101,221.106934 132.498581,248.908768 
	C115.141975,272.291870 98.958900,296.422363 85.495117,322.238678 
	C76.787445,338.935272 68.060188,355.755096 61.195080,373.247070 
	C51.562408,397.790680 42.824356,422.761566 35.238209,448.010742 
	C27.649799,473.267426 22.502291,499.200134 19.918205,525.540833 
	C18.257622,542.467896 15.688744,559.372314 15.209867,576.334412 
	C14.334142,607.353088 14.349998,638.437866 19.018429,669.250427 
	C22.153118,689.940002 24.819378,710.767944 29.360126,731.163330 
	C39.188568,775.308960 54.298183,817.752747 74.215698,858.378662 
	C88.131340,886.762573 104.393677,913.775208 122.706856,939.598694 
	C137.747437,960.807556 153.902603,981.099426 171.683075,999.991516 
	C195.576859,1025.379150 221.176285,1048.966309 249.244492,1069.795776 
	C271.960175,1086.652954 295.422058,1102.374878 320.420593,1115.583008 
	C337.652954,1124.687988 355.105194,1133.641357 373.201050,1140.782471 
	C397.725281,1150.460449 422.708008,1159.177612 447.959869,1166.754395 
	C473.217438,1174.333252 499.148499,1179.489136 525.489136,1182.078369 
	C542.250793,1183.726074 558.987915,1186.332642 575.782410,1186.784180 
	C606.966064,1187.622314 638.219971,1187.730713 669.199585,1182.990479 
	C689.885132,1179.825317 710.718262,1177.193237 731.114075,1172.654419 
	C775.260498,1162.829956 817.690979,1147.691406 858.338318,1127.819580 
	C887.488464,1113.568604 915.582397,1097.346680 941.481079,1077.778564 
	C961.627991,1062.556396 981.572510,1046.890015 1000.211304,1029.890747 
	C1025.712036,1006.633240 1048.788574,980.968628 1069.440186,953.174255 
	C1086.413574,930.330383 1102.246460,906.754456 1115.554321,881.623108 
	C1124.674805,864.399475 1132.939575,846.693604 1140.933105,828.909485 
	C1151.847412,804.627197 1160.093750,779.348022 1166.989502,753.654175 
	C1173.790039,728.315002 1179.470825,702.732971 1182.068970,676.562317 
	C1183.732910,659.802185 1186.337280,643.063843 1186.782227,626.269714 
	C1187.608276,595.086731 1187.756592,563.831970 1182.995239,532.852051 
	C1179.816284,512.168579 1177.209229,491.330475 1172.658325,470.938263 
	C1162.881836,427.129608 1147.921387,385.002014 1128.244263,344.615723 
	C1113.881226,315.136047 1097.033081,287.125580 1077.964722,260.443909 
	C1062.464844,238.755615 1045.749878,218.043808 1027.234375,198.877869 
	C1015.103638,186.320984 1002.443176,174.258179 989.687378,162.329742 
	C982.702698,155.798126 975.026978,150.005386 967.062866,143.480240 
z"/>
<path fill="currentColor" opacity="1.000000" stroke="none" 
	d="
M343.684174,1032.305664 
	C321.279144,1019.383667 300.577179,1004.571350 281.105835,988.235046 
	C265.616547,975.239746 250.649963,961.460938 236.672974,946.860474 
	C214.477188,923.674561 194.790543,898.358948 177.560913,871.200684 
	C158.366241,840.944946 142.515762,809.054260 129.944046,775.487244 
	C119.262314,746.966614 111.542328,717.648621 106.251938,687.729187 
	C103.699242,673.292603 102.109734,658.621521 101.132133,643.986633 
	C99.871902,625.120544 98.767006,606.161316 99.253471,587.284912 
	C99.733452,568.660461 101.434486,549.964600 104.149193,531.528198 
	C107.144562,511.185730 111.357384,490.975555 116.034950,470.940125 
	C121.446663,447.760132 129.727707,425.453613 139.125427,403.576202 
	C152.414551,372.639771 168.187531,343.032501 187.832275,315.682373 
	C199.086502,300.013885 211.207184,284.927307 223.585678,270.120392 
	C232.513580,259.441010 242.100388,249.230408 252.119293,239.563095 
	C269.978607,222.330460 289.103577,206.552567 309.321625,192.097321 
	C333.330933,174.931458 358.649261,160.011917 385.290192,147.373230 
	C420.918701,130.470749 457.868286,117.323242 496.693848,109.985291 
	C514.658081,106.590080 532.678955,102.805443 550.846802,101.347717 
	C574.487854,99.450844 598.341064,98.488037 622.030396,99.283928 
	C662.051086,100.628510 701.629089,106.620438 739.963623,118.368134 
	C762.635132,125.315887 784.833435,134.030426 806.769714,143.099136 
	C835.119690,154.819351 861.689270,170.098495 886.583984,188.004578 
	C902.111084,199.172867 917.070374,211.185196 931.752625,223.455139 
	C942.306030,232.274673 952.377197,241.760834 961.960999,251.631638 
	C979.485596,269.680908 995.443298,289.092682 1010.095215,309.573395 
	C1027.557739,333.982849 1042.645020,359.785187 1055.404053,386.921082 
	C1071.897583,421.999329 1084.763550,458.353180 1091.989380,496.513763 
	C1095.390747,514.476746 1098.052246,532.582397 1100.875977,550.650452 
	C1101.589111,555.213440 1101.842773,559.875183 1101.955811,564.500183 
	C1102.382568,581.950684 1103.432251,599.433350 1102.786133,616.849670 
	C1102.125977,634.647705 1099.966309,652.405212 1098.069214,670.138428 
	C1095.589844,693.312256 1090.991943,716.139832 1083.930908,738.324219 
	C1077.482178,758.584778 1070.588745,778.763916 1062.631592,798.470276 
	C1050.026123,829.688721 1033.733032,859.079346 1014.090332,886.429382 
	C1002.837219,902.097961 990.695923,917.168091 978.321411,931.978638 
	C969.503052,942.532959 960.030273,952.619934 950.140381,962.182007 
	C932.177002,979.549744 912.918518,995.426819 892.573242,1009.988342 
	C868.028015,1027.555908 842.090393,1042.741943 814.799255,1055.553101 
	C779.866821,1071.951294 743.655090,1084.746582 705.666565,1091.966309 
	C687.706177,1095.379395 669.597290,1098.023071 651.531189,1100.859497 
	C647.131348,1101.550293 642.639771,1101.847656 638.182007,1101.945801 
	C618.897949,1102.370728 599.573120,1103.546875 580.335571,1102.734863 
	C561.740112,1101.950073 543.200867,1099.328003 524.694946,1097.042725 
	C493.459015,1093.185425 463.175446,1085.111938 433.572601,1074.671021 
	C402.325928,1063.650391 372.387726,1049.675049 343.684174,1032.305664 
M1012.481323,335.058533 
	C997.093689,311.283386 979.773987,288.941010 960.483032,268.277863 
	C948.264404,255.189987 934.801636,243.234894 921.573792,231.124664 
	C902.637085,213.788071 881.756348,199.036880 860.036316,185.367203 
	C829.389771,166.079575 796.938416,150.571289 762.864197,138.539398 
	C738.118469,129.801483 712.893921,122.448135 686.807861,118.936569 
	C663.927185,115.856483 640.990906,112.668854 617.973389,111.272507 
	C595.309570,109.897614 572.487244,110.642426 549.930969,114.022415 
	C529.570435,117.073387 509.100189,119.791183 489.014465,124.190620 
	C452.589966,132.168808 417.836121,145.108551 384.396759,161.737885 
	C360.200836,173.770462 336.762207,187.043289 315.299042,203.402679 
	C297.709412,216.809647 280.541840,230.872925 264.114868,245.674805 
	C246.366623,261.667267 230.660004,279.701172 215.850052,298.515259 
	C198.329636,320.772583 182.682404,344.234924 169.438339,369.237885 
	C154.014130,398.356628 141.110382,428.528076 131.738312,460.225311 
	C124.943359,483.206604 119.491539,506.456421 116.182159,530.134827 
	C113.761375,547.455505 111.895088,564.936401 111.252731,582.399963 
	C110.587662,600.480774 111.641861,618.628174 112.077759,636.743225 
	C112.162674,640.272095 113.844673,641.964478 117.648216,640.192688 
	C123.334343,637.543945 129.571579,635.793152 134.757233,632.408447 
	C150.520248,622.119873 167.860870,616.583496 186.342545,615.180664 
	C207.435074,613.579651 227.954269,616.541748 247.045776,626.505066 
	C255.229370,630.775818 263.333801,635.262878 271.780060,638.951172 
	C285.609985,644.990479 300.353821,645.508545 315.196289,645.023560 
	C331.068481,644.504944 345.652954,639.864380 359.440216,632.133911 
	C366.043152,628.431641 372.765564,624.763855 379.810760,622.063721 
	C398.077454,615.062866 417.020142,613.622864 436.437439,615.885925 
	C451.137360,617.599121 464.923065,621.972656 477.512421,629.434082 
	C488.438965,635.910095 499.767914,641.108765 512.178528,643.441650 
	C519.476807,644.813538 527.031799,644.819458 535.905640,645.559326 
	C530.778564,635.821899 526.593567,627.777283 522.270142,619.807800 
	C521.825073,618.987366 520.617004,618.280701 519.653687,618.098389 
	C516.904541,617.577820 514.107300,617.244690 511.314117,617.033752 
	C496.496704,615.914856 482.965485,610.737610 470.235291,603.493225 
	C459.230988,597.231018 447.875061,592.202576 435.370056,589.814819 
	C433.032196,589.368347 429.999847,588.157837 428.895905,586.329285 
	C417.554108,567.542236 414.970276,546.998779 419.696228,525.988220 
	C425.733582,499.147461 441.838989,479.962433 467.280762,468.891449 
	C482.741760,462.163666 498.708496,460.313141 515.250305,463.613922 
	C533.808472,467.317017 549.560425,475.842926 561.946350,490.402283 
	C581.254944,513.099060 586.624573,538.906921 578.680176,567.329102 
	C574.417297,582.580200 565.491943,595.247498 553.551392,605.760193 
	C560.064453,615.066650 566.400208,624.119385 572.735474,633.172485 
	C574.678772,635.949402 576.831116,636.287842 579.943237,634.628601 
	C586.954651,630.890381 594.037903,627.223083 601.337891,624.102478 
	C617.623230,617.140930 634.778137,615.287598 652.359741,615.947205 
	C664.377747,616.398010 676.035828,618.634338 687.069458,623.170776 
	C695.758850,626.743408 703.811707,631.841064 712.432556,635.608276 
	C730.710022,643.595398 749.609680,647.843201 769.832642,645.138916 
	C782.772522,643.408447 795.339233,640.408936 806.532837,633.961182 
	C828.333252,621.403870 851.278076,614.587646 876.597351,615.923279 
	C891.301575,616.698975 905.387390,619.550049 918.686768,625.915649 
	C927.649231,630.205444 936.282104,635.331726 945.535828,638.832336 
	C961.290161,644.792175 977.583191,647.412903 994.650513,645.165894 
	C1008.958923,643.282043 1022.653870,639.650635 1034.913818,632.282654 
	C1050.530029,622.897522 1066.942139,616.794373 1085.198975,616.003784 
	C1089.395630,615.822021 1091.326904,614.230591 1091.081177,609.603333 
	C1090.210449,593.210083 1090.224487,576.753662 1088.868774,560.406982 
	C1087.492798,543.818237 1085.661011,527.189636 1082.652588,510.831635 
	C1077.757446,484.215454 1070.524292,458.167145 1061.109131,432.722992 
	C1048.492920,398.627869 1032.314819,366.353180 1012.481323,335.058533 
M651.552856,668.994812 
	C644.815552,668.990845 638.064270,668.707275 631.343933,669.043030 
	C618.651978,669.677002 606.655029,673.134888 595.329773,678.896362 
	C588.107849,682.570435 581.095886,686.737305 573.647949,689.871033 
	C555.844910,697.361511 537.344421,699.856262 517.940002,698.214355 
	C500.207703,696.714050 484.062073,691.464905 468.899994,682.506104 
	C453.381378,673.336731 436.592743,668.357483 418.570953,668.046509 
	C399.548859,667.718262 381.539429,671.698730 364.964783,681.460632 
	C359.703003,684.559570 354.305908,687.549500 348.678070,689.883667 
	C330.838165,697.282959 312.368042,699.872009 292.962982,698.211365 
	C275.242615,696.694885 259.030731,691.623962 243.925491,682.513611 
	C229.210571,673.638733 213.168060,668.817200 196.101151,668.102478 
	C176.244217,667.270813 157.349457,671.209717 139.993698,681.443420 
	C134.732941,684.545410 129.341782,687.575500 123.679047,689.792236 
	C120.100937,691.192932 119.574852,693.216492 120.193565,696.218262 
	C121.424110,702.188477 122.715431,708.149902 124.168381,714.069153 
	C125.072723,717.753479 126.319313,721.353699 127.461388,725.155029 
	C156.347061,706.916565 186.720398,702.981384 218.787888,709.889221 
	C231.163574,712.555115 242.358276,718.030701 253.292389,724.453735 
	C270.604980,734.623779 289.670410,738.040894 309.659729,737.039734 
	C325.813934,736.230652 340.978180,732.181885 354.779083,723.714478 
	C382.329468,706.811340 412.014038,703.283997 443.147614,709.667053 
	C455.846436,712.270569 467.323151,718.034180 478.564667,724.598877 
	C495.409637,734.435730 513.964539,737.902161 533.469727,737.070679 
	C550.166321,736.358948 565.630554,732.047119 580.054932,723.582092 
	C596.103516,714.163940 613.471985,708.343140 632.042297,707.114441 
	C654.438049,705.632629 675.854431,709.722900 695.853760,720.367737 
	C702.258789,723.776855 708.713379,727.192200 715.430359,729.896484 
	C733.013428,736.975464 751.467590,739.379822 769.967896,735.674255 
	C781.634888,733.337341 793.438171,729.538879 803.943787,724.035461 
	C820.741577,715.235657 837.945190,708.449524 856.824341,707.143127 
	C878.838013,705.619751 900.002380,709.416687 919.748352,719.870544 
	C926.598694,723.497314 933.525757,727.086975 940.716187,729.941956 
	C957.316833,736.533081 974.524353,738.585327 992.323242,736.090454 
	C1005.895203,734.187988 1018.583008,730.125916 1030.512329,723.309937 
	C1044.507812,715.313477 1059.202759,709.095276 1075.583130,707.973999 
	C1078.158813,707.797607 1079.673828,706.909973 1080.127075,703.883057 
	C1081.101440,697.374878 1082.752930,690.971313 1083.887817,684.483093 
	C1084.809570,679.213257 1085.382446,673.882507 1086.173706,668.113403 
	C1081.202759,668.620667 1077.098511,668.796509 1073.084839,669.493286 
	C1059.568848,671.839905 1047.399414,677.533936 1035.419434,684.090820 
	C1015.768127,694.846375 994.709412,699.513916 972.098511,698.185547 
	C954.749634,697.166321 938.717346,692.514160 923.190613,685.116333 
	C913.389221,680.446411 903.599548,675.465454 893.309265,672.171387 
	C875.283936,666.401123 856.700195,666.351013 838.697998,672.184814 
	C827.951294,675.667480 817.703247,680.860535 807.516541,685.865662 
	C783.591553,697.620911 758.468689,701.176758 732.375122,696.766663 
	C719.347168,694.564758 706.955383,690.037109 695.366699,683.278748 
	C682.131531,675.560242 667.887817,670.378784 651.552856,668.994812 
M262.787323,741.862976 
	C256.951508,739.114990 250.797928,736.883911 245.336716,733.526550 
	C225.175446,721.132080 203.610168,716.436218 179.990677,718.771606 
	C162.537979,720.497253 147.073822,726.612122 132.570206,735.892090 
	C131.740753,736.422791 130.774490,737.976501 130.994537,738.723328 
	C133.824448,748.327576 136.858826,757.871582 139.877350,767.546021 
	C142.005219,766.855957 143.412704,766.425659 144.800507,765.939148 
	C145.577988,765.666626 146.318558,765.290588 147.082886,764.978577 
	C170.220184,755.533997 194.070969,754.590576 218.208237,759.706299 
	C230.872513,762.390381 242.403229,767.971252 253.633102,774.613281 
	C270.898590,784.825317 290.045410,788.100830 310.026337,787.035034 
	C325.999573,786.182983 341.038605,782.165771 354.662384,773.787354 
	C382.209351,756.846313 411.884460,753.299500 443.009857,759.614563 
	C455.697601,762.188843 467.209229,767.912842 478.428619,774.524475 
	C495.883514,784.810974 515.167175,788.074219 535.305115,787.032715 
	C550.948975,786.223694 565.674377,782.157104 579.096069,774.222778 
	C595.472351,764.541687 613.005371,758.559631 631.867004,757.113159 
	C657.362976,755.158020 681.137939,761.387268 703.219971,774.115967 
	C716.034729,781.502747 729.945190,785.690063 744.495605,786.822510 
	C766.252380,788.515808 786.892395,784.110901 806.013123,773.098999 
	C811.870422,769.725586 818.062134,766.775879 824.390503,764.406311 
	C845.308289,756.573914 866.842529,754.898560 888.800598,759.024719 
	C902.260559,761.554016 914.742249,766.753357 926.668335,773.325500 
	C947.310181,784.700745 969.157898,789.302185 992.669983,786.087585 
	C1005.267639,784.365234 1017.253296,780.773315 1028.288208,774.716736 
	C1038.893188,768.896179 1049.499146,763.385132 1061.255737,760.231384 
	C1063.032837,759.754700 1065.173950,757.823059 1065.738647,756.102417 
	C1069.028076,746.078247 1071.947510,735.930603 1074.866699,725.788635 
	C1075.456177,723.740845 1075.506226,721.537842 1075.872192,718.927002 
	C1072.600952,719.601135 1070.190063,720.051514 1067.801270,720.598206 
	C1056.246826,723.242676 1045.826416,728.473511 1035.458130,734.090820 
	C1015.762817,744.761536 994.749695,749.509949 972.140442,748.186401 
	C954.793823,747.170959 938.760010,742.536133 923.236206,735.132263 
	C913.437683,730.458923 903.649841,725.475403 893.360657,722.182251 
	C875.340210,716.414429 856.759033,716.344788 838.756165,722.172607 
	C828.009766,725.651428 817.755859,730.827881 807.572632,735.835266 
	C783.655701,747.596069 758.461792,751.554138 732.484985,746.602173 
	C720.340271,744.287048 708.110840,739.975525 697.197144,734.168335 
	C676.543457,723.178467 655.502930,716.560181 631.809082,718.815002 
	C615.824463,720.336060 601.072205,725.008850 587.349609,732.961365 
	C566.254944,745.186035 543.833008,750.012939 519.438782,748.234375 
	C500.808228,746.875977 484.035461,741.243042 467.957397,732.153564 
	C460.696075,728.048462 452.871887,724.599792 444.902740,722.161987 
	C431.528992,718.070801 417.777710,717.152039 403.714935,718.843018 
	C390.717926,720.405884 378.319733,723.590576 367.232605,730.377686 
	C347.403229,742.516357 326.064423,749.137512 302.870087,748.877991 
	C289.491119,748.728271 276.178436,747.064087 262.787323,741.862976 
M220.322250,810.028076 
	C232.269501,813.509827 243.436951,818.543762 254.226166,824.888062 
	C271.402496,834.988037 290.407837,838.035278 310.194000,837.033630 
	C325.841034,836.241516 340.712280,832.391113 353.976624,824.231018 
	C369.210632,814.859192 385.498077,808.743591 403.112823,807.202637 
	C429.087494,804.930054 453.797546,809.466797 476.563568,823.185242 
	C502.915802,839.064636 531.222229,841.374817 560.144165,832.145447 
	C571.681702,828.463562 582.287842,821.915161 593.418701,816.895020 
	C614.846313,807.230957 637.330566,804.836304 660.384766,808.350891 
	C675.387390,810.638062 689.342346,816.291870 702.502258,823.825439 
	C715.458069,831.242310 729.495422,835.644470 744.222473,836.813232 
	C765.975708,838.539612 786.633667,834.217285 805.762756,823.186890 
	C811.617615,819.810791 817.827209,816.904175 824.150757,814.513550 
	C845.052002,806.611938 866.562561,804.939148 888.550720,808.984192 
	C902.719055,811.590759 915.683228,817.318420 928.225220,824.101196 
	C948.364014,834.992432 969.642395,839.149902 992.428101,836.096619 
	C1004.862915,834.430420 1016.380127,830.353027 1027.705200,825.180054 
	C1036.600830,821.116638 1042.964478,815.139099 1046.146240,805.757385 
	C1047.413696,802.020142 1049.494019,798.566833 1050.996460,794.899170 
	C1053.893555,787.827332 1056.642944,780.695007 1060.011963,772.175598 
	C1054.369263,774.720154 1050.209839,776.616333 1046.033936,778.475159 
	C1034.288940,783.703552 1022.877258,790.011047 1010.683899,793.801270 
	C1000.281189,797.034851 989.018921,797.882446 978.054626,798.779724 
	C972.079529,799.268677 965.904785,797.858521 959.870056,796.966675 
	C947.042419,795.070923 934.687500,791.456177 923.454468,784.883606 
	C905.696228,774.493164 886.720764,768.145386 866.109192,768.128052 
	C849.755127,768.114319 834.054077,771.909180 819.319885,779.291504 
	C811.350525,783.284424 803.515991,787.659119 795.250916,790.926514 
	C776.133118,798.484192 756.303162,800.085205 735.942322,797.121948 
	C722.365356,795.146057 709.347595,791.380432 697.560669,784.615540 
	C676.926270,772.772827 655.358887,766.307251 631.333740,768.890747 
	C618.706787,770.248535 606.693726,773.207092 595.320923,778.872437 
	C586.305847,783.363159 577.460815,788.360046 568.078247,791.911316 
	C552.475708,797.816833 536.262573,799.473145 519.438354,798.247192 
	C501.523529,796.941772 485.270569,791.765930 469.715637,783.073059 
	C461.850983,778.677917 453.474030,774.842041 444.886200,772.181641 
	C431.705780,768.098572 418.112946,767.151978 404.198517,768.822510 
	C390.694489,770.443787 378.171143,774.205505 366.296051,780.785583 
	C358.802032,784.938049 351.102234,788.896301 343.113495,791.941650 
	C327.151337,798.026245 310.593872,799.409058 293.467804,798.223267 
	C275.839630,797.002686 259.624939,792.012573 244.767563,783.028809 
	C229.823868,773.992920 213.791885,769.114258 196.601501,768.103271 
	C179.686966,767.108582 163.349411,770.272583 147.848831,777.223755 
	C146.728958,777.725891 145.213074,779.874268 145.505875,780.615601 
	C149.542221,790.835632 153.863693,800.942993 157.871490,810.496765 
	C164.367676,809.495361 169.712540,808.498230 175.100601,807.873718 
	C189.999481,806.147339 204.836334,806.256409 220.322250,810.028076 
M261.086304,878.537720 
	C276.710388,885.334778 293.032623,887.934204 310.023315,887.035645 
	C325.999115,886.190735 341.046844,882.177429 354.663208,873.782532 
	C382.211884,856.797729 411.900696,853.329529 443.024445,859.622131 
	C455.716858,862.188293 467.226013,867.924316 478.446930,874.536194 
	C495.906128,884.823792 515.195557,888.068909 535.335205,887.033813 
	C551.159668,886.220581 565.913147,881.871338 579.529846,873.912170 
	C595.479370,864.589417 612.579773,858.630371 630.914185,857.132080 
	C656.557190,855.036560 680.544922,861.066467 702.810181,873.948792 
	C715.739929,881.429749 729.818115,885.699341 744.554260,886.832825 
	C766.321716,888.507080 786.951660,884.066406 806.077026,873.075806 
	C811.939087,869.707092 818.121826,866.731689 824.455933,864.379272 
	C845.383728,856.606873 866.905273,854.851074 888.881531,859.014221 
	C903.528442,861.788818 916.861389,867.922180 929.840454,874.955811 
	C947.674988,884.620544 966.810547,887.993835 986.900330,887.009033 
	C995.403748,886.592163 1002.411682,884.369141 1006.723267,875.883301 
	C1010.293030,868.857300 1015.332825,862.591797 1019.487000,855.844971 
	C1022.880432,850.333557 1025.927612,844.608826 1029.128418,838.978638 
	C1026.424805,838.801514 1024.565186,839.315857 1022.812317,840.076416 
	C1008.797302,846.157104 993.911682,848.146912 978.881470,848.821228 
	C972.687805,849.099060 966.392639,847.843506 960.187012,846.975281 
	C947.169556,845.153870 934.708984,841.416870 923.304993,834.782227 
	C905.535339,824.444092 886.551514,818.088257 865.925476,818.122314 
	C850.089417,818.148499 834.838684,821.697632 820.519897,828.772888 
	C812.084656,832.940979 803.778015,837.458069 795.071655,840.970886 
	C775.963379,848.680847 756.069397,849.866333 735.765503,847.079407 
	C722.175781,845.213989 709.199951,841.286072 697.399353,834.528687 
	C676.916809,822.799683 655.503662,816.403015 631.648010,818.863831 
	C618.146423,820.256653 605.424866,823.620361 593.370056,829.831055 
	C585.152344,834.064941 577.015320,838.646423 568.389526,841.855652 
	C552.601440,847.729431 536.254883,849.557983 519.251099,848.238464 
	C501.530121,846.863281 485.263031,842.098938 470.074158,833.060730 
	C445.317413,818.328979 418.843964,814.576477 390.848541,821.015747 
	C379.124207,823.712463 368.765503,829.416138 358.313751,835.165588 
	C338.570007,846.026428 317.398621,849.799255 294.774597,848.288635 
	C277.830750,847.157166 262.380249,842.404175 247.543121,834.780884 
	C242.850143,832.369690 238.489731,829.263000 233.689407,827.118713 
	C223.238464,822.450195 212.325012,819.762634 200.802872,818.611877 
	C188.294754,817.362549 176.315521,818.753052 163.349121,821.599426 
	C169.221802,832.110962 174.972855,841.760864 180.035873,851.759216 
	C182.311951,856.254089 185.226288,857.334900 189.849442,857.076233 
	C202.350174,856.376709 214.825104,857.360718 226.450912,862.138794 
	C238.016327,866.892212 249.125671,872.755249 261.086304,878.537720 
M499.360291,933.164917 
	C510.683228,937.134155 522.429321,937.287903 534.217163,936.994019 
	C550.592468,936.585754 565.745483,931.913208 579.841064,923.697021 
	C595.636658,914.489868 612.627625,908.565552 630.797974,907.153564 
	C653.333862,905.402405 674.971313,909.396301 695.190674,920.023865 
	C701.905334,923.553162 708.644470,927.145813 715.680115,929.932678 
	C732.281067,936.508423 749.480469,938.573425 767.287354,936.101746 
	C780.883606,934.214417 793.577576,930.048645 805.482178,923.270630 
	C821.498901,914.151245 838.673767,908.363403 857.069275,907.102539 
	C879.490112,905.565674 900.715759,910.082703 920.932190,920.266846 
	C931.943176,925.813721 943.654358,930.011108 955.212952,934.386047 
	C956.910217,935.028442 960.230957,933.945190 961.576477,932.511597 
	C967.565674,926.130127 973.174316,919.384827 978.792297,912.663940 
	C982.525208,908.198181 986.041687,903.551514 989.716248,898.908508 
	C979.219116,898.238586 969.532227,897.997437 959.940186,896.914856 
	C947.364441,895.495422 935.242188,891.753723 924.325928,885.474365 
	C903.162292,873.300415 881.124023,866.064453 856.310669,868.879517 
	C843.694763,870.310791 831.668579,873.205017 820.301758,878.881531 
	C812.030640,883.012146 803.910583,887.582703 795.314575,890.897583 
	C776.187866,898.273438 756.350525,899.987854 736.001282,897.117920 
	C722.411743,895.201294 709.400757,891.404907 697.608887,884.646423 
	C676.975281,872.820190 655.424438,866.331482 631.389404,868.876465 
	C618.577026,870.233093 606.432800,873.334717 594.905396,879.021790 
	C586.020203,883.405273 577.356567,888.392700 568.134766,891.904541 
	C552.040771,898.033508 535.291138,899.645630 517.996277,898.177002 
	C501.174622,896.748535 485.533234,892.339905 471.155151,883.656982 
	C446.963074,869.047241 421.039795,864.782104 393.473999,870.346985 
	C380.709808,872.923767 369.419342,879.023193 358.082764,885.275574 
	C338.360931,896.152710 317.116089,899.729980 294.515594,898.275940 
	C276.849945,897.139343 261.015930,891.582031 245.496933,883.848694 
	C236.395706,879.313416 227.210495,874.628174 217.563583,871.603394 
	C209.301743,869.012939 200.329025,868.689636 191.670700,867.363647 
	C191.402374,867.992310 191.134033,868.620972 190.865707,869.249634 
	C196.888229,877.651917 203.155792,885.891479 208.868790,894.499146 
	C215.419327,904.368774 223.121277,911.733093 235.119766,915.440735 
	C245.693237,918.708069 255.091095,925.589233 265.382812,930.000183 
	C284.690125,938.275085 304.874207,938.938171 325.281372,935.042236 
	C338.428741,932.532227 350.032410,926.394531 361.661072,919.914185 
	C383.663239,907.652954 407.548431,904.963623 432.367035,907.818970 
	C446.235352,909.414612 458.943604,914.141785 471.349335,920.130371 
	C480.386841,924.492981 489.489777,928.720093 499.360291,933.164917 
M801.302246,675.897705 
	C825.666321,661.022278 851.778442,654.417175 880.457886,657.841797 
	C897.921997,659.927124 913.683594,666.195984 928.848511,674.498169 
	C942.241516,681.830322 956.565063,686.039246 971.730713,686.931335 
	C993.950867,688.238403 1014.638733,682.987427 1033.872192,671.658508 
	C1043.591675,665.933411 1053.968994,661.511658 1065.148315,659.486450 
	C1072.572144,658.141663 1080.091309,657.322449 1087.974243,656.210693 
	C1088.744629,646.618530 1089.515137,637.024048 1090.294800,627.316040 
	C1088.082642,627.172058 1087.076294,626.959229 1086.104980,627.065430 
	C1070.633911,628.756592 1056.092651,633.378296 1042.617065,641.183167 
	C1011.748413,659.061829 979.190796,661.946777 945.598083,651.044312 
	C934.696472,647.506226 924.663330,641.342712 914.128174,636.613770 
	C894.316833,627.721191 873.762207,624.737366 852.228088,628.766724 
	C838.899841,631.260681 826.750977,636.319946 814.925415,642.880920 
	C792.370422,655.394653 768.076355,659.203369 742.476257,656.166321 
	C727.450928,654.383789 713.273682,650.035217 700.378174,642.478271 
	C685.362305,633.678650 669.387695,628.322083 652.224426,627.155884 
	C633.948792,625.914062 616.341980,629.405029 599.795837,637.606506 
	C590.622498,642.153564 581.547607,646.950134 572.144836,650.971375 
	C557.309448,657.315796 541.518921,657.256714 525.710999,657.057678 
	C507.162567,656.824036 490.497986,650.800049 474.413330,642.086792 
	C466.470367,637.783997 458.126740,633.956665 449.565094,631.118958 
	C434.890656,626.255310 419.542053,625.260254 404.439545,628.246765 
	C394.032959,630.304565 383.118652,632.846924 374.052246,638.015991 
	C353.029358,650.001770 331.529755,657.704102 306.861847,657.283020 
	C287.289673,656.948975 269.045990,653.079834 252.214844,643.480530 
	C238.285583,635.536194 224.001144,629.480652 207.850983,627.706055 
	C191.577316,625.918091 175.601089,626.860168 160.559418,633.023926 
	C144.916809,639.433960 129.898361,647.367004 113.898293,654.970886 
	C114.939690,662.294495 116.111214,670.533203 117.476891,680.137329 
	C122.104996,677.764160 125.999527,676.102661 129.552429,673.892151 
	C157.180817,656.701660 187.025940,653.260132 218.340118,659.743958 
	C230.882339,662.340881 242.233871,667.947205 253.311081,674.462097 
	C270.618347,684.640930 289.692322,688.040955 309.680176,687.038940 
	C325.834167,686.229126 340.992950,682.169617 354.795929,673.703003 
	C382.347168,656.803467 412.031677,653.277954 443.166901,659.673889 
	C455.867004,662.282776 467.346436,668.035278 478.580231,674.614502 
	C495.898804,684.757507 515.006042,688.031372 534.990540,687.052490 
	C550.658752,686.284973 565.416870,682.273987 578.857056,674.417480 
	C610.161865,656.118347 643.046021,651.528198 677.516479,662.985291 
	C689.028381,666.811523 699.729614,673.035950 710.897888,677.944519 
	C741.048706,691.196106 770.956238,689.919739 801.302246,675.897705 
M853.632324,919.004150 
	C843.213684,921.962463 832.555481,924.280762 822.446411,928.065857 
	C813.055847,931.581909 804.482544,937.252380 795.136353,940.922302 
	C779.471741,947.073181 763.103394,949.060120 746.191101,948.138184 
	C729.012756,947.201721 712.729309,943.089172 697.932739,934.762878 
	C677.066162,923.020813 655.467896,916.451416 631.243652,918.841614 
	C615.090332,920.435486 600.161743,925.286194 586.409973,933.431091 
	C563.353271,947.087219 538.493774,950.737122 512.406189,947.823608 
	C495.583252,945.944824 480.313171,939.395630 465.714600,930.949829 
	C442.910309,917.756836 418.426483,915.284363 392.915619,920.537598 
	C380.462433,923.102051 369.475494,928.997681 358.444672,935.083069 
	C338.562988,946.051392 317.217133,949.880371 294.439606,948.247070 
	C277.716278,947.047852 262.385162,942.410706 247.682159,934.880676 
	C245.326569,933.674316 243.044235,932.325012 240.728043,931.041748 
	C240.851089,932.955566 241.535736,934.053650 242.447342,934.910278 
	C258.410370,949.911682 274.301666,964.992310 290.468689,979.771240 
	C293.752441,982.773071 297.959320,986.372192 301.977844,986.689270 
	C320.954132,988.186340 338.730774,983.369141 354.996948,973.526367 
	C382.617340,956.812927 412.255524,953.236267 443.394318,959.758362 
	C456.436737,962.490112 468.150909,968.474487 479.702698,975.119629 
	C496.471863,984.766052 514.924866,987.933716 534.222717,987.062988 
	C550.580322,986.324951 565.743286,981.917358 579.835510,973.701233 
	C595.627258,964.494263 612.612915,958.558228 630.780212,957.156494 
	C653.305725,955.418457 675.009888,959.256470 695.133545,970.066223 
	C709.450684,977.756958 724.041016,984.182800 740.507996,986.232239 
	C762.477905,988.966675 783.159485,985.169067 802.432190,975.000854 
	C818.370544,966.591736 834.469055,959.780701 852.622986,957.756775 
	C873.908325,955.383667 894.173828,958.320129 913.619690,966.944946 
	C923.649780,971.393616 922.219727,971.323608 929.227844,964.307129 
	C930.150085,963.383728 931.411499,962.795593 932.317200,961.859924 
	C937.683472,956.315918 942.991089,950.715088 948.291565,945.161621 
	C942.255371,942.794312 936.200806,940.723633 930.410034,938.075989 
	C922.152100,934.300293 914.276917,929.643311 905.900085,926.181091 
	C889.467773,919.389404 872.343201,916.491333 853.632324,919.004150 
M723.769409,1032.860962 
	C737.950745,1036.846191 752.270691,1038.096191 766.971619,1036.131226 
	C780.927185,1034.265747 793.844604,1029.805298 806.121948,1023.039856 
	C811.616394,1020.012024 817.317627,1017.273987 823.141418,1014.945862 
	C838.397400,1008.847168 854.310181,1006.392273 870.738220,1006.903259 
	C873.028137,1006.974426 875.768433,1006.328979 877.603149,1005.030457 
	C889.156311,996.853638 900.512390,988.398376 912.444397,979.661194 
	C910.564636,978.508301 909.531555,977.673584 908.354980,977.183655 
	C891.967651,970.359497 875.153015,967.058167 857.190674,968.770325 
	C841.557739,970.260437 827.233582,974.967285 813.489258,982.172180 
	C807.505676,985.308716 801.519531,988.574463 795.221558,990.952209 
	C776.037231,998.194946 756.241638,1000.001465 735.898132,997.108643 
	C722.315430,995.177246 709.312195,991.353821 697.523071,984.594238 
	C676.887146,972.762146 655.320312,966.299561 631.295349,968.888367 
	C618.836609,970.230835 606.938538,973.071411 595.739075,978.674011 
	C588.345215,982.372803 581.219788,986.687866 573.615662,989.870667 
	C556.135742,997.186829 537.936096,999.883728 518.906311,998.169128 
	C507.099670,997.105286 495.602966,995.299194 484.851807,990.342407 
	C476.469147,986.477722 468.583282,981.528015 460.174896,977.728088 
	C442.213043,969.610718 423.479980,966.272278 403.674408,968.856995 
	C390.393768,970.590088 377.895569,974.020996 366.283447,980.813599 
	C360.449585,984.226135 354.476959,987.667053 348.146271,989.904663 
	C337.708466,993.593994 326.929230,996.317322 315.678833,999.628845 
	C326.805511,1006.749573 338.109344,1013.758423 349.136566,1021.178406 
	C352.430786,1023.395020 354.985748,1023.917664 358.462067,1021.848694 
	C385.028687,1006.037354 413.648346,1003.648804 443.279022,1009.744202 
	C455.793213,1012.318420 467.177979,1017.859619 478.275085,1024.395020 
	C495.691528,1034.652222 514.934631,1038.117798 535.114075,1037.057251 
	C550.949524,1036.225098 565.746094,1031.983521 579.341736,1024.032227 
	C595.300476,1014.698853 612.365967,1008.607849 630.685486,1007.177307 
	C653.015015,1005.433594 674.476379,1009.312195 694.637878,1019.760071 
	C703.838013,1024.527710 713.554199,1028.299805 723.769409,1032.860962 
M654.259521,1019.014160 
	C646.524536,1019.005005 638.776733,1018.707825 631.057617,1019.053284 
	C619.046509,1019.590759 607.646118,1022.881897 596.848450,1028.091919 
	C588.959900,1031.898193 581.424316,1036.489624 573.384460,1039.917236 
	C556.252502,1047.220947 538.293762,1050.411499 519.710938,1047.914307 
	C509.634003,1046.560059 499.313934,1045.318115 489.785858,1042.041382 
	C479.741119,1038.587158 470.622253,1032.524658 460.900085,1028.032104 
	C434.637329,1015.895996 407.713318,1014.765320 380.391907,1024.095825 
	C375.731018,1025.687500 371.364838,1028.142090 366.862488,1030.197998 
	C366.921783,1030.741943 366.981049,1031.285767 367.040344,1031.829590 
	C381.206940,1038.555176 395.317352,1045.403320 409.572601,1051.935425 
	C414.180450,1054.046875 419.087555,1056.430298 423.997498,1056.791870 
	C441.958374,1058.114746 458.650635,1062.984131 474.235016,1071.990601 
	C477.889587,1074.102661 481.858063,1076.037720 485.930969,1076.991333 
	C498.430878,1079.918457 511.027740,1082.453491 523.636658,1084.882568 
	C528.966736,1085.909424 534.547119,1087.370605 539.794861,1086.758423 
	C554.126953,1085.086182 567.824646,1081.062866 580.386108,1073.457520 
	C586.296326,1069.879028 592.715698,1066.994141 599.176514,1064.500000 
	C618.567810,1057.014404 638.710083,1055.064331 659.193848,1058.128052 
	C675.381409,1060.549194 690.277771,1066.797119 704.506897,1074.833862 
	C707.473694,1076.509644 711.553101,1078.093262 714.602966,1077.410645 
	C726.164551,1074.822632 737.587097,1071.526001 748.928711,1068.059326 
	C782.588867,1057.770508 814.262634,1042.883545 845.018005,1025.943848 
	C848.333862,1024.117554 851.427246,1021.887085 855.843262,1019.064697 
	C853.254761,1019.064697 852.237061,1018.899109 851.291260,1019.089905 
	C839.462158,1021.476318 827.758362,1024.310669 817.180237,1030.414795 
	C802.311096,1038.994995 786.702271,1045.382202 769.476685,1047.317261 
	C756.476685,1048.777588 743.512634,1048.877197 730.648621,1046.300415 
	C717.452026,1043.657104 704.983643,1039.128906 693.327881,1032.200317 
	C681.569092,1025.210571 668.607910,1021.320374 654.259521,1019.014160 
M491.474426,497.793549 
	C486.726105,499.650909 481.621521,500.907867 477.294708,503.475525 
	C462.926208,512.002319 455.170898,524.895935 454.024567,541.585938 
	C452.888794,558.122986 459.766449,571.284607 472.194153,581.536133 
	C481.004852,588.804077 491.553680,592.700928 503.001617,591.794006 
	C513.904053,590.930420 523.417847,586.380005 531.841064,578.897217 
	C551.851013,561.121277 552.477234,529.740051 532.776367,510.454559 
	C521.638977,499.551941 507.878632,495.141663 491.474426,497.793549 
M662.886414,1070.433716 
	C631.285034,1063.825806 602.919128,1071.937012 576.500183,1089.367676 
	C594.463318,1094.558472 677.426880,1087.527832 692.001038,1080.373901 
	C682.549805,1077.188721 673.098572,1074.003662 662.886414,1070.433716 
z"/>
<path fill="currentColor" opacity="1.000000" stroke="none" 
	d="
M869.000000,510.002441 
	C869.000000,536.105103 869.000000,561.708130 869.000000,587.223083 
	C857.114807,588.360046 845.870300,589.435791 834.000610,590.571289 
	C834.000610,588.648010 834.000488,586.857117 834.000488,585.066223 
	C834.000549,548.085876 833.996582,511.105499 834.005005,474.125122 
	C834.006409,468.109344 837.543640,464.128754 843.726013,464.076477 
	C863.214294,463.911652 882.747681,463.214081 902.181335,464.256866 
	C919.124390,465.165985 933.919189,472.625427 946.583496,484.067322 
	C960.086731,496.267273 968.451233,511.344543 971.560120,529.207825 
	C976.645081,558.426514 966.681946,589.068481 939.010742,607.262451 
	C937.783447,608.069458 935.294739,608.045166 933.912415,607.360474 
	C920.588989,600.760925 907.430847,593.805786 892.663940,590.802856 
	C892.259521,590.720520 891.949951,590.171326 892.224548,590.428589 
	C899.732300,587.479309 908.188904,585.515076 915.149414,581.159851 
	C933.567505,569.635376 938.553223,551.185242 935.484985,533.559143 
	C931.524231,510.805511 917.784302,497.290283 896.796021,494.111084 
	C887.888184,492.761719 878.729675,493.068024 869.000000,492.588074 
	C869.000000,498.942688 869.000000,504.222778 869.000000,510.002441 
z"/>
<path fill="currentColor" opacity="1.000000" stroke="none" 
	d="
M310.956665,618.000000 
	C289.630005,619.166138 270.610382,613.269409 252.578506,603.312439 
	C249.374908,601.543518 247.888138,599.555176 247.903336,595.632812 
	C248.061630,554.812927 247.995575,513.992188 248.005600,473.171692 
	C248.007401,465.838806 249.806274,464.030182 257.037201,464.004822 
	C262.702026,463.984955 268.367035,463.985168 274.031830,464.005249 
	C280.168213,464.027039 282.935303,466.816620 282.985413,473.140411 
	C283.039490,479.971161 282.999817,486.802704 282.999878,493.633881 
	C283.000214,520.958618 283.000061,548.283325 283.000092,575.608093 
	C283.000092,577.757507 283.000122,579.906921 283.000122,582.680664 
	C285.264648,582.798889 287.183105,582.983032 289.101837,582.986084 
	C304.430298,583.010376 319.758881,582.985413 335.087372,583.007446 
	C342.466736,583.018066 344.985199,585.508179 344.998016,592.695374 
	C345.006012,597.193970 344.704071,601.717896 345.089172,606.183289 
	C345.412598,609.933594 343.752075,612.000061 340.527924,612.645874 
	C330.865112,614.581482 321.145996,616.235901 310.956665,618.000000 
z"/>
<path fill="currentColor" opacity="1.000000" stroke="none" 
	d="
M766.000000,492.000000 
	C766.000916,484.173065 766.167603,476.840942 765.936768,469.521301 
	C765.810181,465.506897 767.016296,463.786652 771.293030,463.929382 
	C779.110779,464.190338 786.955322,464.258270 794.765076,463.896973 
	C798.742310,463.712952 800.145752,465.646637 800.772522,468.864502 
	C801.055115,470.315735 800.990967,471.845184 800.991333,473.339142 
	C801.001343,516.301575 800.922546,559.264343 801.116821,602.225891 
	C801.136597,606.600647 799.653076,609.296631 795.869446,610.501465 
	C786.392029,613.519592 776.816284,616.229126 766.000000,619.442688 
	C766.000000,575.920959 766.000000,534.210449 766.000000,492.000000 
z"/>
<path fill="currentColor" opacity="1.000000" stroke="none" 
	d="
M727.716919,591.521362 
	C724.483582,596.951904 721.571106,602.137939 718.258972,607.054626 
	C716.650208,609.442688 714.666992,611.755005 710.914978,609.938477 
	C698.189575,603.777649 685.372314,597.806519 672.304260,591.627808 
	C684.535400,589.309143 692.721008,582.289673 696.202393,570.345825 
	C697.250549,566.749756 697.905518,562.901367 697.923401,559.164612 
	C698.061951,530.166931 697.993652,501.168304 698.005615,472.169983 
	C698.008484,465.263489 699.242371,464.023560 706.061462,464.005829 
	C713.227661,463.987183 720.395264,464.089478 727.559570,463.973267 
	C730.744690,463.921631 732.029541,465.145844 732.024292,468.377991 
	C731.967102,503.542511 732.174011,538.709106 731.804688,573.869812 
	C731.743958,579.648315 729.245300,585.401184 727.716919,591.521362 
z"/>
<path fill="currentColor" opacity="1.000000" stroke="none" 
	d="
M361.000000,576.000000 
	C361.000183,542.845825 360.967621,510.191589 361.059631,477.537659 
	C361.067383,474.783173 361.585602,471.924805 362.444458,469.304047 
	C363.577484,465.846527 366.254333,464.001373 370.029083,464.006744 
	C375.193756,464.014069 380.358490,463.992950 385.523132,464.003021 
	C392.700378,464.017059 396.705658,467.916443 396.975128,475.240143 
	C397.079224,478.068665 396.999603,480.903992 396.999634,483.736237 
	C396.999847,517.056824 396.952484,550.377563 397.059265,583.697815 
	C397.072388,587.788879 396.320312,589.451477 391.566864,590.350281 
	C383.391052,591.896240 375.541809,595.179016 367.565674,597.764160 
	C365.577179,598.408630 363.627533,599.173157 361.000000,600.120422 
	C361.000000,591.765808 361.000000,584.132935 361.000000,576.000000 
z"/>
<path fill="currentColor" opacity="1.000000" stroke="none" 
	d="
M626.837708,464.000061 
	C635.539795,464.026764 635.994873,464.472565 635.996887,472.800781 
	C636.004028,502.268402 636.008301,531.736023 635.995483,561.203674 
	C635.991028,571.462463 639.930481,579.727600 648.249512,585.840637 
	C648.771118,586.223938 649.141907,586.812439 650.204163,588.000061 
	C647.223206,588.000061 644.852844,587.811279 642.521240,588.032471 
	C631.856750,589.044128 621.167542,589.920288 610.570312,591.429016 
	C607.863953,591.814392 607.024170,591.141785 606.119934,589.151611 
	C601.808411,579.662903 600.173584,569.545288 600.085083,559.297913 
	C599.840454,530.997803 599.992615,502.694122 600.005188,474.391876 
	C600.009155,465.423828 601.446106,464.007751 610.377502,464.000885 
	C615.705017,463.996796 621.032471,464.000061 626.837708,464.000061 
z"/>
</svg>