<svg class="icon icon-logo" viewBox="0 0 162 95" fill="none" xmlns="http://www.w3.org/2000/svg">
  <path d="M50.432 52.1039C50.432 55.2399 49.696 57.9279 48.224 60.1679C46.816 62.4079 44.928 64.2639 42.56 65.7359C40.192 67.1439 37.472 68.1999 34.4 68.9039C31.392 69.5439 28.32 69.8639 25.184 69.8639C22.112 69.8639 19.072 69.5439 16.064 68.9039C13.12 68.2639 10.496 67.3679 8.19196 66.2159C5.88796 64.9999 4.03196 63.5599 2.62396 61.8959C1.21596 60.1679 0.511963 58.2479 0.511963 56.1359C0.511963 54.2159 0.959963 52.8719 1.85596 52.1039C2.81596 51.2719 3.90396 50.8559 5.11996 50.8559C6.33596 50.8559 7.45596 51.2399 8.47996 52.0079C9.56796 52.7759 10.112 53.7999 10.112 55.0799C10.112 55.7839 9.95196 56.4559 9.63196 57.0959C9.37596 57.7359 9.08796 58.3439 8.76796 58.9199C8.44796 59.4319 8.19196 59.9119 7.99996 60.3599C7.80796 60.7439 7.71196 61.1919 7.71196 61.7039C7.71196 62.6639 8.19196 63.5599 9.15196 64.3919C10.112 65.2239 11.392 65.9599 12.992 66.5999C14.656 67.1759 16.512 67.6559 18.56 68.0399C20.672 68.3599 22.848 68.5199 25.088 68.5199C27.584 68.5199 30.016 68.2959 32.384 67.8479C34.816 67.3359 36.992 66.5359 38.912 65.4479C40.832 64.3599 42.368 62.9519 43.52 61.2239C44.736 59.4319 45.344 57.2879 45.344 54.7919C45.344 52.7439 44.768 50.9839 43.616 49.5119C42.528 48.0399 41.056 46.7279 39.2 45.5759C37.344 44.4239 35.232 43.3679 32.864 42.4079C30.496 41.4479 28.032 40.5199 25.472 39.6239C22.592 38.5999 19.744 37.5439 16.928 36.4559C14.176 35.3039 11.68 33.9919 9.43996 32.5199C7.26396 30.9839 5.47196 29.2239 4.06396 27.2399C2.71996 25.1919 2.04796 22.7599 2.04796 19.9439C2.04796 16.5519 2.68796 13.6399 3.96796 11.2079C5.24796 8.77589 6.91196 6.79189 8.95996 5.2559C11.072 3.7199 13.44 2.5999 16.064 1.89589C18.752 1.1279 21.472 0.743896 24.224 0.743896C26.912 0.743896 29.536 1.0639 32.096 1.7039C34.656 2.34389 36.928 3.27189 38.912 4.48789C40.896 5.70389 42.496 7.14389 43.712 8.8079C44.928 10.4719 45.536 12.3599 45.536 14.4719C45.536 16.3279 45.056 17.6719 44.096 18.5039C43.2 19.3359 42.144 19.7519 40.928 19.7519C39.712 19.7519 38.56 19.3679 37.472 18.5999C36.448 17.8319 35.936 16.8079 35.936 15.5279C35.936 14.7599 36.064 14.0879 36.32 13.5119C36.64 12.8719 36.96 12.2639 37.28 11.6879C37.6 11.1759 37.856 10.6959 38.048 10.2479C38.24 9.7999 38.336 9.3519 38.336 8.90389C38.336 7.8799 37.92 6.9519 37.088 6.1199C36.32 5.2879 35.264 4.58389 33.92 4.00789C32.64 3.3679 31.136 2.8879 29.408 2.5679C27.68 2.2479 25.888 2.0879 24.032 2.0879C21.92 2.0879 19.776 2.3439 17.6 2.8559C15.488 3.3039 13.6 4.0399 11.936 5.0639C10.272 6.0879 8.89596 7.4319 7.80796 9.0959C6.78396 10.7599 6.27196 12.7439 6.27196 15.0479C6.27196 17.1599 6.81596 19.0159 7.90396 20.6159C9.05596 22.1519 10.56 23.5279 12.416 24.7439C14.336 25.9599 16.48 27.0799 18.848 28.1039C21.28 29.0639 23.776 30.0239 26.336 30.9839C29.28 32.0719 32.192 33.2239 35.072 34.4399C37.952 35.6559 40.512 37.0639 42.752 38.6639C45.056 40.2639 46.912 42.1519 48.32 44.3279C49.728 46.5039 50.432 49.0959 50.432 52.1039Z" fill="currentColor"/>
  <path d="M60.3492 67.7519H67.3572V3.23989H60.3492V1.9919H75.1332V13.9919C75.5172 12.2639 76.0612 10.6319 76.7652 9.0959C77.5332 7.5599 78.4612 6.2159 79.5492 5.0639C80.7012 3.9119 82.0772 3.0159 83.6772 2.3759C85.3412 1.6719 87.2932 1.31989 89.5332 1.31989C92.4132 1.31989 94.9732 1.76789 97.2132 2.66389C99.4532 3.55989 101.309 4.77589 102.781 6.31189C104.317 7.78389 105.469 9.51189 106.237 11.4959C107.005 13.4159 107.389 15.4319 107.389 17.5439C107.389 19.7199 106.973 21.8959 106.141 24.0719C105.373 26.2479 104.157 28.2959 102.493 30.2159C100.893 32.0719 98.8132 33.7039 96.2532 35.1119C93.7572 36.5199 90.7812 37.5759 87.3252 38.2799C89.6292 38.8559 91.8052 39.8799 93.8532 41.3519C95.9652 42.7599 97.9492 44.4879 99.8052 46.5359C101.725 48.5199 103.581 50.7599 105.373 53.2559C107.165 55.6879 108.957 58.2159 110.749 60.8399C113.181 64.4239 115.709 67.9759 118.333 71.4959C121.021 75.0799 123.933 78.2799 127.069 81.0959C130.269 83.9759 133.821 86.3119 137.725 88.1039C141.629 89.8959 146.013 90.7919 150.877 90.7919C153.117 90.7919 155.069 90.2479 156.733 89.1599C158.397 88.1359 159.677 86.9839 160.573 85.7039L161.437 86.2799C160.861 87.2399 160.061 88.1999 159.037 89.1599C158.077 90.1199 156.989 90.9839 155.773 91.7519C154.621 92.5199 153.341 93.1279 151.933 93.5759C150.525 94.0879 149.085 94.3439 147.613 94.3439C141.725 94.3439 136.509 93.2879 131.965 91.1759C127.421 89.1279 123.325 86.4719 119.677 83.2079C116.029 79.9439 112.733 76.2959 109.789 72.2639C106.845 68.2959 104.061 64.3599 101.437 60.4559C99.5812 57.6399 97.7252 54.9839 95.8692 52.4879C94.0772 49.9279 92.2212 47.6879 90.3012 45.7679C88.3812 43.7839 86.3972 42.1839 84.3492 40.9679C82.3652 39.7519 80.2212 39.1119 77.9172 39.0479H75.1332V67.7519H82.1412V68.9999H60.3492V67.7519ZM76.9572 37.7999C81.1172 37.7999 84.6692 37.1919 87.6132 35.9759C90.5572 34.6959 92.9572 33.0639 94.8132 31.0799C96.7332 29.0319 98.1412 26.7919 99.0372 24.3599C99.9332 21.8639 100.381 19.3999 100.381 16.9679C100.381 15.0479 100.125 13.2239 99.6132 11.4959C99.1012 9.76789 98.3652 8.2639 97.4052 6.9839C96.5092 5.63989 95.3892 4.58389 94.0452 3.8159C92.7012 2.9839 91.1972 2.5679 89.5332 2.5679C85.9492 2.5679 83.1972 3.4319 81.2772 5.1599C79.3572 6.8879 77.9172 9.0959 76.9572 11.7839C76.0612 14.4079 75.5172 17.3199 75.3252 20.5199C75.1972 23.6559 75.1332 26.6639 75.1332 29.5439V37.7999H76.9572Z" fill="currentColor"/>
</svg>
