<svg class="icon-name-filled" viewBox="0 0 881 112" fill="none" xmlns="http://www.w3.org/2000/svg">
  <path id="letter-n" class="last" d="M800.136 104.16V0H811.496L873.096 108.96V7.84C873.096 6.45334 872.936 5.38667 872.616 4.64001C872.296 3.78667 871.816 3.14667 871.176 2.72C870.643 2.18667 869.95 1.76 869.096 1.44C868.243 1.12 867.283 0.800006 866.216 0.480003V0H880.616V0.480003C879.55 0.800006 878.643 1.12 877.896 1.44C877.15 1.76 876.51 2.18667 875.976 2.72C875.55 3.14667 875.23 3.78667 875.016 4.64001C874.803 5.38667 874.696 6.45334 874.696 7.84V112H863.816L801.736 2.4V104.16C801.736 106.827 802.163 108.587 803.016 109.44C803.976 110.187 805.523 110.88 807.656 111.52V112H793.256V111.52C795.39 110.88 797.043 110.187 798.216 109.44C799.496 108.587 800.136 106.827 800.136 104.16Z" fill="currentColor"/>
  <path id="letter-e" class="last" d="M722.54 54.72V105.92C722.54 106.773 722.7 107.733 723.02 108.8C723.34 109.867 724.513 110.4 726.54 110.4H761.58C763.5 110.4 765.047 109.867 766.22 108.8C767.5 107.733 768.567 106.453 769.42 104.96C770.273 103.467 770.967 101.92 771.5 100.32C772.033 98.6133 772.46 97.1733 772.78 96H773.26V112H709.1V111.52C710.7 111.2 711.713 110.56 712.14 109.6C712.673 108.533 712.94 107.307 712.94 105.92V6.08C712.94 4.69334 712.673 3.52001 712.14 2.56001C711.713 1.49334 710.7 0.800006 709.1 0.480003V0H773.26V16H772.78C772.46 14.8267 772.033 13.44 771.5 11.84C770.967 10.1333 770.273 8.53334 769.42 7.04C768.567 5.54667 767.5 4.26667 766.22 3.20001C765.047 2.13333 763.5 1.6 761.58 1.6H725.58C724.087 1.6 723.18 2.13333 722.86 3.20001C722.647 4.26667 722.54 5.22667 722.54 6.08V53.12H746.06C749.047 53.12 750.913 52.48 751.66 51.2C752.513 49.92 753.26 48.2133 753.9 46.08H754.38V62.08H753.9C753.58 61.0133 753.26 60.0533 752.94 59.2C752.727 58.24 752.353 57.44 751.82 56.8C751.287 56.16 750.54 55.68 749.58 55.36C748.727 54.9333 747.553 54.72 746.06 54.72H722.54Z" fill="currentColor"/>
  <path id="letter-r" class="last" d="M677.213 112C674.653 107.84 672.253 103.947 670.013 100.32C667.879 96.6933 665.746 93.12 663.612 89.6C661.479 86.08 659.292 82.56 657.052 79.04C654.919 75.4133 652.573 71.52 650.013 67.36L633.852 78.4V105.92C633.852 107.2 634.013 108.48 634.333 109.76C634.653 110.933 635.879 111.52 638.013 111.52V112H620.412V111.52C622.012 111.2 623.026 110.56 623.453 109.6C623.986 108.533 624.253 107.307 624.253 105.92V6.08C624.253 4.69334 623.986 3.52001 623.453 2.56001C623.026 1.49334 622.012 0.800006 620.412 0.480003V0H641.693C649.159 0 655.666 0.906668 661.213 2.72C666.866 4.53334 671.452 6.98667 674.972 10.08C678.492 13.1733 680.892 16.7467 682.172 20.8C683.559 24.8533 683.719 29.12 682.653 33.6C681.586 38.08 679.186 42.6133 675.453 47.2C671.826 51.7867 666.759 56.16 660.253 60.32L658.013 61.76L684.893 105.92C686.599 108.587 687.826 110.187 688.573 110.72C689.426 111.147 690.119 111.413 690.653 111.52V112H677.213ZM633.852 1.6V76.32L659.453 58.88C664.466 55.4667 668.146 51.7333 670.492 47.68C672.839 43.52 674.119 39.3067 674.333 35.04C674.653 30.7733 674.012 26.6667 672.412 22.72C670.812 18.6667 668.519 15.0933 665.533 12C662.653 8.8 659.132 6.29333 654.972 4.48C650.919 2.56 646.493 1.6 641.693 1.6H633.852Z" fill="currentColor"/>
  <path id="letter-a" class="first" d="M523.896 0H533.496L563.416 105.92C563.736 107.093 564.11 108.267 564.536 109.44C564.963 110.613 565.976 111.307 567.576 111.52V112H549.976V111.52C551.576 111.2 552.696 110.507 553.336 109.44C554.083 108.373 554.243 107.2 553.816 105.92L539.576 55.52H509.816L496.216 103.68C495.79 105.28 495.63 106.613 495.736 107.68C495.95 108.64 496.376 109.44 497.016 110.08C497.656 110.613 498.403 110.987 499.256 111.2C500.11 111.413 500.91 111.52 501.656 111.52V112H487.256V111.52C489.39 110.88 490.936 110.187 491.896 109.44C492.963 108.587 493.87 106.667 494.616 103.68L523.896 0ZM539.096 53.92L524.696 2.88L510.296 53.92H539.096Z" fill="currentColor"/>
  <path id="letter-n" class="first" d="M394.668 104.16V0H406.027L467.628 108.96V7.84C467.628 6.45334 467.468 5.38667 467.148 4.64001C466.828 3.78667 466.347 3.14667 465.707 2.72C465.174 2.18667 464.481 1.76 463.628 1.44C462.774 1.12 461.814 0.800006 460.747 0.480003V0H475.148V0.480003C474.081 0.800006 473.174 1.12 472.427 1.44C471.681 1.76 471.041 2.18667 470.508 2.72C470.081 3.14667 469.761 3.78667 469.548 4.64001C469.334 5.38667 469.228 6.45334 469.228 7.84V112H458.348L396.267 2.4V104.16C396.267 106.827 396.694 108.587 397.547 109.44C398.507 110.187 400.054 110.88 402.188 111.52V112H387.788V111.52C389.921 110.88 391.574 110.187 392.747 109.44C394.027 108.587 394.668 106.827 394.668 104.16Z" fill="currentColor"/>
  <path id="letter-i" class="first" d="M357.315 6.08C357.315 4.69334 357.048 3.52001 356.515 2.56001C356.088 1.49334 355.075 0.800006 353.475 0.480003V0H371.075V0.480003C369.475 0.693334 368.355 1.38667 367.715 2.56001C367.182 3.62667 366.915 4.8 366.915 6.08V105.92C366.915 107.2 367.182 108.427 367.715 109.6C368.355 110.667 369.475 111.307 371.075 111.52V112H353.475V111.52C355.075 111.2 356.088 110.56 356.515 109.6C357.048 108.533 357.315 107.307 357.315 105.92V6.08Z" fill="currentColor"/>
  <path id="letter-r" class="first" d="M321.587 112C319.027 107.84 316.628 103.947 314.388 100.32C312.254 96.6933 310.121 93.12 307.987 89.6C305.854 86.08 303.667 82.56 301.427 79.04C299.294 75.4133 296.948 71.52 294.388 67.36L278.228 78.4V105.92C278.228 107.2 278.387 108.48 278.707 109.76C279.027 110.933 280.254 111.52 282.388 111.52V112H264.788V111.52C266.388 111.2 267.401 110.56 267.828 109.6C268.361 108.533 268.628 107.307 268.628 105.92V6.08C268.628 4.69334 268.361 3.52001 267.828 2.56001C267.401 1.49334 266.388 0.800006 264.788 0.480003V0H286.068C293.534 0 300.041 0.906668 305.587 2.72C311.241 4.53334 315.828 6.98667 319.348 10.08C322.868 13.1733 325.268 16.7467 326.548 20.8C327.934 24.8533 328.094 29.12 327.027 33.6C325.961 38.08 323.561 42.6133 319.828 47.2C316.201 51.7867 311.134 56.16 304.628 60.32L302.388 61.76L329.268 105.92C330.974 108.587 332.201 110.187 332.948 110.72C333.801 111.147 334.494 111.413 335.027 111.52V112H321.587ZM278.228 1.6V76.32L303.828 58.88C308.841 55.4667 312.521 51.7333 314.867 47.68C317.214 43.52 318.494 39.3067 318.707 35.04C319.027 30.7733 318.388 26.6667 316.788 22.72C315.188 18.6667 312.894 15.0933 309.908 12C307.028 8.8 303.508 6.29333 299.348 4.48C295.294 2.56 290.868 1.6 286.068 1.6H278.228Z" fill="currentColor"/>
  <path id="letter-b" class="first" d="M176.503 6.08C176.503 4.69334 176.236 3.52001 175.702 2.56001C175.276 1.49334 174.263 0.800006 172.663 0.480003V0H199.542C207.649 0 214.156 1.54667 219.062 4.64001C223.969 7.73334 227.169 11.52 228.663 16C230.263 20.3733 230.049 25.0667 228.023 30.08C225.996 34.9867 222.156 39.36 216.503 43.2H217.783C224.076 43.2 229.409 44.9067 233.783 48.32C238.156 51.7333 241.356 56 243.383 61.12C245.516 66.1333 246.369 71.6267 245.943 77.6C245.623 83.5733 243.916 89.12 240.823 94.24C237.729 99.2533 233.196 103.467 227.223 106.88C221.249 110.293 213.623 112 204.342 112H172.663V111.52C174.263 111.2 175.276 110.56 175.702 109.6C176.236 108.533 176.503 107.307 176.503 105.92V6.08ZM186.102 1.6V68.64C189.622 63.0933 193.623 58.08 198.103 53.6C202.583 49.0133 207.969 45.3333 214.262 42.56C216.396 41.6 218.103 39.9467 219.383 37.6C220.663 35.2533 221.516 32.5867 221.943 29.6C222.369 26.5067 222.262 23.3067 221.622 20C221.089 16.6933 219.916 13.7067 218.102 11.04C216.289 8.26667 213.836 6.02667 210.743 4.32C207.756 2.50667 204.022 1.6 199.542 1.6H186.102ZM186.102 105.92C186.102 107.2 186.263 108.267 186.583 109.12C186.903 109.973 188.129 110.4 190.262 110.4H204.342C210.316 110.4 215.436 108.693 219.702 105.28C224.076 101.867 227.489 97.6 229.943 92.48C232.396 87.36 233.943 81.8667 234.583 76C235.329 70.1333 235.116 64.8 233.943 60C232.769 55.0933 230.583 51.1467 227.383 48.16C224.289 45.1733 220.183 44 215.062 44.64C212.929 44.96 210.529 45.9733 207.863 47.68C205.196 49.3867 202.529 51.52 199.863 54.08C197.196 56.64 194.636 59.4667 192.182 62.56C189.836 65.6533 187.809 68.6933 186.102 71.68V105.92Z" fill="currentColor"/>
  <path id="letter-a" class="first" d="M115.302 0H124.902L154.822 105.92C155.142 107.093 155.516 108.267 155.942 109.44C156.369 110.613 157.382 111.307 158.982 111.52V112H141.382V111.52C142.982 111.2 144.102 110.507 144.742 109.44C145.489 108.373 145.649 107.2 145.222 105.92L130.982 55.52H101.222L87.6225 103.68C87.1958 105.28 87.0358 106.613 87.1425 107.68C87.3558 108.64 87.7825 109.44 88.4225 110.08C89.0625 110.613 89.8091 110.987 90.6625 111.2C91.5158 111.413 92.3158 111.52 93.0625 111.52V112H78.6625V111.52C80.7958 110.88 82.3425 110.187 83.3025 109.44C84.3691 108.587 85.2758 106.667 86.0225 103.68L115.302 0ZM130.502 53.92L116.102 2.88L101.702 53.92H130.502Z" fill="currentColor"/>
  <path id="letter-s" class="first" d="M10.52 33.44C11.2667 38.1333 13.08 41.8667 15.96 44.64C18.84 47.4133 22.2533 49.76 26.2 51.68C30.2533 53.4933 34.5733 55.0933 39.16 56.48C43.7467 57.8667 48.0133 59.52 51.96 61.44C56.0133 63.2533 59.48 65.6 62.36 68.48C65.3467 71.36 67.2133 75.2 67.96 80C68.6 84.3733 68.0133 88.5333 66.2 92.48C64.3867 96.32 61.6667 99.68 58.04 102.56C54.52 105.44 50.3067 107.733 45.4 109.44C40.4933 111.147 35.32 112 29.88 112C24.2267 112 19.16 111.2 14.68 109.6C10.3067 107.893 6.35999 105.493 2.83999 102.4V87.2H3.31999C3.85333 91.4667 5.23999 95.0933 7.47999 98.08C9.71999 101.067 12.2267 103.467 15 105.28C17.7733 107.093 20.5467 108.427 23.32 109.28C26.0933 110.027 28.28 110.4 29.88 110.4C35.32 110.4 40.0667 109.6 44.12 108C48.1733 106.293 51.3733 104.053 53.72 101.28C56.1733 98.4 57.7733 95.1467 58.52 91.52C59.2667 87.7867 59.1067 83.9467 58.04 80C57.1867 76.48 55.2133 73.7067 52.12 71.68C49.0267 69.6533 45.4 67.9467 41.24 66.56C37.08 65.0667 32.7067 63.6267 28.12 62.24C23.5333 60.7467 19.2667 58.88 15.32 56.64C11.3733 54.2933 8.01333 51.3067 5.23999 47.68C2.57333 44.0533 1.07999 39.3067 0.759993 33.44C0.439993 28.64 1.07999 24.2133 2.67999 20.16C4.27999 16.1067 6.57333 12.5867 9.55999 9.6C12.6533 6.61333 16.44 4.26667 20.92 2.56001C25.4 0.853335 30.36 0 35.8 0C41.4533 0 46.4667 0.853335 50.84 2.56001C55.32 4.16 59.32 6.50667 62.84 9.6V24.8H62.36C61.9333 20.4267 60.8133 16.8 59 13.92C57.1867 10.9333 55 8.53334 52.44 6.72C49.9867 4.90667 47.2667 3.62667 44.28 2.88C41.4 2.02667 38.5733 1.6 35.8 1.6C30.68 1.6 26.36 2.45333 22.84 4.16C19.4267 5.76 16.6533 8 14.52 10.88C12.4933 13.76 11.16 17.12 10.52 20.96C9.87999 24.8 9.87999 28.96 10.52 33.44Z" fill="currentColor"/>
</svg>